<svg width="0" height="0" class="hidden">

 <symbol fill="none" xmlns="http://www.w3.org/2000/svg" viewBox="0 0 22 22" id="clock">
    <path d="M10.989 0C4.917 0 0 4.928 0 11s4.917 11 10.989 11C17.072 22 22 17.072 22 11S17.072 0 10.989 0zM11 19.8A8.798 8.798 0 012.2 11c0-4.862 3.938-8.8 8.8-8.8s8.8 3.938 8.8 8.8-3.938 8.8-8.8 8.8zm.55-14.3H9.9v6.6l5.775 3.465.825-1.353-4.95-2.937V5.5z" fill="#000"></path>
  </symbol>


    <symbol  xmlns="http://www.w3.org/2000/svg" viewBox="0 0 21 21" id="search">
        <path d="M8.13681 1.28311C9.4926 1.28187 10.8183 1.68278 11.9462 2.43512C13.0741 3.18746 13.9536 4.25743 14.4733 5.50967C14.993 6.76191 15.1296 8.14015 14.8658 9.47005C14.6021 10.7999 13.9498 12.0217 12.9916 12.9809C12.0333 13.94 10.8121 14.5934 9.48246 14.8583C8.1528 15.1233 6.77443 14.9879 5.52172 14.4694C4.26901 13.9508 3.19824 13.0724 2.44487 11.9452C1.69149 10.8179 1.28937 9.4926 1.28937 8.1368C1.29759 6.32271 2.02146 4.58516 3.30365 3.3018C4.58583 2.01844 6.32272 1.29299 8.13681 1.28311ZM8.13681 0C6.5275 0 4.95433 0.477215 3.61624 1.3713C2.27815 2.26538 1.23524 3.53618 0.619381 5.02298C0.00352566 6.50979 -0.15761 8.14583 0.15635 9.72421C0.47031 11.3026 1.24527 12.7524 2.38322 13.8904C3.52117 15.0283 4.97101 15.8033 6.5494 16.1173C8.12778 16.4312 9.76382 16.2701 11.2506 15.6542C12.7374 15.0384 14.0082 13.9955 14.9023 12.6574C15.7964 11.3193 16.2736 9.74611 16.2736 8.1368C16.2736 5.97879 15.4163 3.90916 13.8904 2.38321C12.3644 0.857268 10.2948 0 8.13681 0Z" ></path>
        <path d="M19.8225 18.9588L15.2096 14.3145L14.3208 15.197L18.9337 19.8413C18.9917 19.8996 19.0606 19.946 19.1364 19.9778C19.2123 20.0095 19.2937 20.026 19.3759 20.0263C19.4582 20.0266 19.5397 20.0107 19.6157 19.9794C19.6918 19.9482 19.761 19.9024 19.8194 19.8444C19.8778 19.7865 19.9241 19.7176 19.9559 19.6417C19.9876 19.5658 20.0041 19.4845 20.0044 19.4022C20.0047 19.32 19.9888 19.2385 19.9576 19.1624C19.9264 19.0863 19.8805 19.0171 19.8225 18.9588Z" ></path>
    </symbol>

<symbol  id="burger" xmlns="http://www.w3.org/2000/svg" xmlns:xlink="http://www.w3.org/1999/xlink" aria-hidden="true" role="img"  preserveAspectRatio="xMidYMid meet" viewBox="0 0 24 24">
<path d="M4 6h16v2H4zm0 5h16v2H4zm0 5h16v2H4z" />
</symbol>


<symbol   id="close" xmlns="http://www.w3.org/2000/svg" xmlns:xlink="http://www.w3.org/1999/xlink" aria-hidden="true" role="img"  preserveAspectRatio="xMidYMid meet" viewBox="0 0 24 24">
<path d="M15.59 7L12 10.59L8.41 7L7 8.41L10.59 12L7 15.59L8.41 17L12 13.41L15.59 17L17 15.59L13.41 12L17 8.41L15.59 7z" />
</symbol>

    <symbol  xmlns="http://www.w3.org/2000/svg" viewBox="0 0 14 24" id="arrow-left">
        <path d="M13.0607 13.0607C13.6464 12.4749 13.6464 11.5251 13.0607 10.9393L3.51472 1.3934C2.92893 0.807611 1.97919 0.807611 1.3934 1.3934C0.807612 1.97918 0.807612 2.92893 1.3934 3.51472L9.87868 12L1.3934 20.4853C0.807611 21.0711 0.807611 22.0208 1.3934 22.6066C1.97918 23.1924 2.92893 23.1924 3.51472 22.6066L13.0607 13.0607ZM11 13.5L12 13.5L12 10.5L11 10.5L11 13.5Z" ></path>
    </symbol>


    <symbol  xmlns="http://www.w3.org/2000/svg" viewBox="0 0 14 24" id="arrow-right">
        <path d="M0.93934 10.9393C0.353553 11.5251 0.353553 12.4749 0.93934 13.0607L10.4853 22.6066C11.0711 23.1924 12.0208 23.1924 12.6066 22.6066C13.1924 22.0208 13.1924 21.0711 12.6066 20.4853L4.12132 12L12.6066 3.51472C13.1924 2.92893 13.1924 1.97919 12.6066 1.3934C12.0208 0.807612 11.0711 0.807612 10.4853 1.3934L0.93934 10.9393ZM2 13.5L3 13.5L3 10.5L2 10.5L2 13.5Z"></path>
    </symbol>






<symbol fill="none" xmlns="http://www.w3.org/2000/svg" viewBox="0 0 19 12" id="arrow-down">
        <path d="M17 2L9.45714 8.99968L2 2"  stroke-width="3"></path>
</symbol>







</svg>